<svg xmlns="http://www.w3.org/2000/svg" width="46" height="46" viewBox="0 0 48 48">
  <g>
    <path fill="#4285F4" d="M24 9.5c3.54 0 6.7 1.23 9.19 3.25l6.85-6.85C36.45 2.36 30.6 0 24 0 14.82 0 6.73 5.48 2.69 13.44l7.99 6.2C12.13 13.13 17.62 9.5 24 9.5z"/>
    <path fill="#34A853" d="M46.1 24.55c0-1.64-.15-3.22-.42-4.74H24v9.01h12.42c-.54 2.9-2.18 5.36-4.65 7.01l7.19 5.6C43.98 37.36 46.1 31.45 46.1 24.55z"/>
    <path fill="#FBBC05" d="M10.68 28.65c-1.13-3.36-1.13-6.99 0-10.35l-7.99-6.2C.64 16.36 0 20.09 0 24s.64 7.64 2.69 11.9l7.99-6.2z"/>
    <path fill="#EA4335" d="M24 48c6.6 0 12.15-2.18 16.19-5.95l-7.19-5.6c-2.01 1.35-4.6 2.15-7.5 2.15-6.38 0-11.87-3.63-14.32-8.89l-7.99 6.2C6.73 42.52 14.82 48 24 48z"/>
    <path fill="none" d="M0 0h48v48H0z"/>
  </g>
</svg> 